<?xml version="1.0" encoding="UTF-8"?>
<!-- Generator: Adobe Illustrator 26.0.3, SVG Export Plug-In . SVG Version: 6.00 Build 0)  -->
<svg xmlns="http://www.w3.org/2000/svg" xmlns:xlink="http://www.w3.org/1999/xlink" version="1.1" id="Calque_1" x="0px" y="0px" viewBox="0 0 302.8 175.9" style="enable-background:new 0 0 302.8 175.9;" xml:space="preserve">
<style type="text/css">
	.st0{fill:#F07F2D;}
	.st1{fill:#BD1C2B;}
	.st2{fill:#EF7D00;}
</style>
<g>
	<g>
		<path d="M7.2,154.4h5.2l4.8,21H13l-1-5.3H7.4l-1,5.3h-4L7.2,154.4z M11.4,166.9l-1.7-8.8l-1.6,8.8H11.4z"></path>
		<path d="M19.4,162.3H18v-2.7h1.4v-1.6c0-1.3,0.2-2.3,0.7-2.9c0.5-0.6,1.4-0.9,2.6-0.9c0.5,0,1,0,1.8,0.1v2.7c-0.1,0-0.1,0-0.2,0    c-0.1,0-0.1,0-0.2,0c-0.7,0-1.1,0.4-1.1,1.1v1.4h1.5v2.7H23v13.1h-3.7V162.3z"></path>
		<path d="M26.7,159.6h3.5v2.6c0.5-1,1-1.7,1.5-2.2c0.5-0.5,1.3-0.7,2.1-0.8v4.4c-0.2,0-0.4-0.1-0.5-0.1H33c-0.8,0-1.4,0.2-1.9,0.7    c-0.4,0.5-0.7,1.1-0.7,1.9v9.2h-3.7V159.6z"></path>
		<path d="M36.1,154.4h3.6v3.3h-3.6V154.4z M36.1,159.6h3.6v15.8h-3.6V159.6z"></path>
		<path d="M52.8,169.2c0,0.2,0,0.3,0,0.4v0.4c0,2-0.4,3.4-1.2,4.3c-0.8,0.9-2.1,1.4-3.9,1.4c-1.1,0-2-0.2-2.7-0.5    c-0.7-0.3-1.2-0.8-1.6-1.5c-0.4-0.7-0.7-1.5-0.8-2.6c-0.2-1.1-0.2-2.3-0.2-3.8s0.1-2.7,0.2-3.8c0.2-1,0.4-1.9,0.8-2.6    c0.4-0.7,0.9-1.2,1.6-1.5s1.6-0.5,2.7-0.5c1.8,0,3,0.4,3.9,1.3c0.8,0.8,1.2,2.2,1.2,4v0.6h-3.5v-0.4c0-0.9-0.1-1.6-0.4-2    c-0.2-0.4-0.6-0.6-1.2-0.6c-0.6,0-1,0.2-1.2,0.6c-0.2,0.4-0.4,1.1-0.4,2v5.5c0,1,0.1,1.8,0.3,2.2c0.2,0.4,0.6,0.7,1.2,0.7    c0.7,0,1.1-0.3,1.3-0.8c0.2-0.5,0.3-1.4,0.3-2.7v-0.3L52.8,169.2L52.8,169.2z"></path>
		<path d="M63,175.4c-0.2-0.2-0.3-0.7-0.4-1.5c-0.8,1.3-2,2-3.6,2c-1.2,0-2.1-0.4-2.8-1.2c-0.7-0.8-1-1.9-1-3.4    c0-0.7,0.1-1.4,0.3-1.9c0.2-0.5,0.4-1,0.8-1.4c0.4-0.4,0.8-0.8,1.4-1.1c0.5-0.3,1.2-0.7,1.9-1c0.5-0.2,0.9-0.4,1.2-0.5    s0.7-0.3,0.9-0.5c0.2-0.2,0.4-0.4,0.5-0.6c0.1-0.2,0.2-0.5,0.2-0.9c0-1-0.5-1.6-1.6-1.6c-0.7,0-1.2,0.2-1.5,0.5    c-0.3,0.4-0.5,0.9-0.5,1.7v0.3h-3.5c0-1.8,0.4-3.1,1.3-3.9c0.9-0.8,2.3-1.2,4.2-1.2c1,0,1.8,0.1,2.4,0.3c0.7,0.2,1.2,0.5,1.6,0.9    c0.4,0.4,0.7,0.9,0.9,1.5c0.2,0.6,0.3,1.4,0.3,2.3v8.9c0,0.4,0,0.8,0.1,1.2c0.1,0.4,0.2,0.7,0.4,1.1L63,175.4L63,175.4z     M62.5,167.1c-1.2,0.6-2.1,1.2-2.7,1.7c-0.6,0.5-0.9,1.2-0.9,2.1c0,1.4,0.5,2,1.6,2c1.3,0,1.9-1.1,1.9-3.3V167.1z"></path>
		<path d="M69.1,159.6h3.6v1.6c0.8-1.3,1.9-2,3.3-2c1.1,0,2,0.3,2.6,1c0.6,0.6,0.9,1.6,0.9,2.8v12.4h-3.5v-10.6    c0-0.9-0.1-1.5-0.3-1.9c-0.2-0.4-0.6-0.6-1.2-0.6c-0.7,0-1.1,0.3-1.3,0.8s-0.4,1.3-0.4,2.3v10h-3.7V159.6z"></path>
		<path d="M93.3,168v1.3c0,1.1,0.1,2,0.4,2.5c0.3,0.5,0.9,0.8,1.7,0.8c1.7,0,2.5-0.8,2.5-2.5c0-0.4-0.1-0.7-0.2-1    c-0.1-0.3-0.3-0.6-0.4-0.8c-0.2-0.3-0.4-0.5-0.7-0.8c-0.3-0.3-0.7-0.5-1.1-0.8l-2-1.4c-0.7-0.5-1.3-0.9-1.8-1.3s-0.9-0.8-1.2-1.3    c-0.3-0.4-0.6-0.9-0.7-1.4c-0.2-0.5-0.3-1.2-0.3-1.9c0-1.8,0.5-3.1,1.6-4.1c1-1,2.5-1.5,4.3-1.5c2,0,3.4,0.5,4.5,1.6    c1,1.1,1.5,2.6,1.5,4.6v0.4c0,0.1,0,0.2,0,0.4h-3.7v-0.6c0-1.1-0.2-1.9-0.5-2.4s-1-0.8-1.9-0.8c-0.6,0-1.1,0.2-1.5,0.6    c-0.4,0.4-0.5,0.9-0.5,1.5c0,0.7,0.2,1.2,0.7,1.6c0.4,0.4,1,0.9,1.8,1.4l2.1,1.4c0.7,0.5,1.3,0.9,1.8,1.3c0.5,0.4,0.9,0.9,1.2,1.4    c0.3,0.5,0.6,1,0.7,1.6c0.2,0.6,0.2,1.3,0.2,2c0,1.9-0.5,3.4-1.6,4.4c-1.1,1-2.6,1.5-4.7,1.5c-2.1,0-3.7-0.5-4.7-1.6    c-1-1.1-1.5-2.7-1.5-5c0-0.2,0-0.4,0-0.6c0-0.2,0-0.4,0-0.6L93.3,168L93.3,168z"></path>
		<path d="M108.7,170.6c0,0.7,0.1,1.2,0.2,1.5c0.1,0.3,0.4,0.4,0.9,0.4h0.2c0.1,0,0.1,0,0.2,0v2.8c-0.4,0-0.8,0.1-1.1,0.1    c-0.3,0-0.6,0-0.8,0c-0.7,0-1.2-0.1-1.7-0.2c-0.4-0.1-0.7-0.4-1-0.7s-0.4-0.7-0.5-1.2c-0.1-0.5-0.1-1-0.1-1.7v-9.5h-1.4v-2.7h1.4    v-4.3h3.7v4.3h1.5v2.7h-1.5v7.2V170.6z"></path>
		<path d="M122.8,175.4h-3.6v-1.6c-0.8,1.3-1.9,2-3.3,2c-1.1,0-2-0.3-2.6-1c-0.6-0.6-0.9-1.6-0.9-2.8v-12.4h3.5v10.3    c0,0.9,0.1,1.6,0.3,2.1c0.2,0.5,0.6,0.7,1.3,0.7c0.7,0,1.1-0.2,1.3-0.7c0.2-0.5,0.4-1.2,0.4-2.3v-10.1h3.7L122.8,175.4    L122.8,175.4z"></path>
		<path d="M132.8,173.7c-0.6,1.4-1.7,2.1-3.2,2.1c-0.8,0-1.5-0.2-2-0.5c-0.5-0.3-1-0.8-1.3-1.5c-0.3-0.7-0.5-1.5-0.7-2.6    c-0.1-1-0.2-2.3-0.2-3.7c0-1.4,0.1-2.7,0.2-3.8c0.1-1,0.3-1.9,0.6-2.6c0.3-0.7,0.7-1.2,1.2-1.5c0.5-0.3,1.2-0.5,2-0.5    c1.5,0,2.5,0.6,3.1,1.8v-6.6h3.7v21h-3.5L132.8,173.7L132.8,173.7z M129.2,167.3c0,1,0,1.8,0,2.5c0,0.7,0.1,1.3,0.2,1.7    c0.1,0.4,0.3,0.8,0.5,1c0.2,0.2,0.5,0.3,0.9,0.3c0.4,0,0.7-0.1,1-0.2c0.3-0.2,0.4-0.4,0.6-0.8c0.1-0.4,0.2-0.8,0.3-1.3    c0-0.5,0.1-1.2,0.1-1.9c0-1.1,0-2,0-2.8c0-0.8-0.1-1.4-0.2-2c-0.1-0.5-0.3-0.9-0.6-1.1c-0.3-0.2-0.6-0.4-1.1-0.4    c-0.4,0-0.7,0.1-0.9,0.3c-0.2,0.2-0.4,0.5-0.5,0.9c-0.1,0.4-0.2,0.9-0.2,1.5C129.2,165.7,129.2,166.4,129.2,167.3"></path>
		<path d="M139.4,154.4h3.6v3.3h-3.6V154.4z M139.4,159.6h3.6v15.8h-3.6V159.6z"></path>
		<path d="M156.6,170c0,0.1,0,0.2,0,0.3c0,0.1,0,0.2,0,0.3c0,1.8-0.4,3.1-1.3,4c-0.9,0.8-2.2,1.2-4.1,1.2c-1,0-1.8-0.1-2.5-0.4    c-0.7-0.2-1.2-0.6-1.6-1.2c-0.3-0.4-0.6-0.9-0.8-1.4c-0.2-0.5-0.3-1-0.4-1.6c-0.1-0.6-0.1-1.2-0.2-2c0-0.7,0-1.5,0-2.3    c0-1.4,0.1-2.6,0.2-3.6c0.1-1,0.5-1.8,1-2.5c0.9-1.1,2.4-1.6,4.4-1.6c1.9,0,3.4,0.6,4.3,1.8c0.5,0.7,0.8,1.5,0.9,2.4    c0.1,0.9,0.2,2.1,0.2,3.4v1.2h-7.2c0,0.2,0,0.3,0,0.5v0.5c0,1.4,0.1,2.4,0.4,3.1c0.3,0.6,0.7,1,1.4,1c0.7,0,1.1-0.3,1.4-0.8    s0.4-1.3,0.4-2.3H156.6z M153,165.5v-0.7c0-1-0.1-1.7-0.4-2.2c-0.2-0.4-0.7-0.7-1.4-0.7c-0.7,0-1.2,0.2-1.4,0.7    c-0.3,0.4-0.4,1.2-0.4,2.2c0,0,0,0.1,0,0.2c0,0.1,0,0.3,0,0.4L153,165.5L153,165.5z"></path>
		<path d="M162.2,170.1v0.4c0,0.9,0.1,1.5,0.4,1.9c0.3,0.4,0.7,0.6,1.4,0.6c0.5,0,0.9-0.1,1.2-0.4c0.3-0.3,0.4-0.6,0.4-1.1    c0-0.3-0.1-0.5-0.2-0.7c-0.1-0.2-0.3-0.4-0.5-0.6c-0.2-0.2-0.5-0.4-0.8-0.6s-0.6-0.4-1-0.7c-0.7-0.4-1.2-0.9-1.7-1.2    c-0.5-0.4-0.9-0.8-1.3-1.2c-0.4-0.4-0.6-0.9-0.8-1.4c-0.2-0.5-0.3-1.1-0.3-1.7c0-1.4,0.4-2.5,1.3-3.2c0.9-0.7,2.1-1.1,3.8-1.1    c3.2,0,4.8,1.6,4.8,4.9v0.3h-3.2v-0.3c0-1.5-0.6-2.2-1.8-2.2c-0.5,0-0.8,0.1-1.1,0.4c-0.3,0.3-0.4,0.6-0.4,1    c0,0.5,0.2,0.9,0.5,1.2c0.3,0.3,0.8,0.7,1.5,1.1c0.7,0.5,1.4,0.9,1.9,1.3c0.6,0.4,1.1,0.8,1.5,1.2c0.4,0.4,0.8,0.9,1,1.4    c0.2,0.5,0.4,1.1,0.4,1.9c0,1.4-0.4,2.4-1.3,3.2c-0.9,0.8-2.2,1.2-3.9,1.2c-1.8,0-3-0.4-3.9-1.2c-0.8-0.8-1.2-2.1-1.2-3.8    c0-0.1,0-0.2,0-0.3c0-0.1,0-0.2,0-0.3H162.2z"></path>
		<path d="M182.1,154.4h5.2l4.8,21h-4.2l-1-5.3h-4.5l-1,5.3h-4L182.1,154.4z M186.3,166.9l-1.7-8.8l-1.6,8.8H186.3z"></path>
		<path d="M196.7,170.1v0.4c0,0.9,0.1,1.5,0.4,1.9c0.3,0.4,0.7,0.6,1.4,0.6c0.5,0,0.9-0.1,1.2-0.4c0.3-0.3,0.4-0.6,0.4-1.1    c0-0.3-0.1-0.5-0.2-0.7s-0.3-0.4-0.5-0.6c-0.2-0.2-0.5-0.4-0.8-0.6s-0.6-0.4-1-0.7c-0.7-0.4-1.2-0.9-1.7-1.2    c-0.5-0.4-0.9-0.8-1.3-1.2c-0.4-0.4-0.6-0.9-0.8-1.4c-0.2-0.5-0.3-1.1-0.3-1.7c0-1.4,0.4-2.5,1.3-3.2c0.9-0.7,2.1-1.1,3.8-1.1    c3.2,0,4.8,1.6,4.8,4.9v0.3h-3.2v-0.3c0-1.5-0.6-2.2-1.8-2.2c-0.5,0-0.8,0.1-1.1,0.4c-0.3,0.3-0.4,0.6-0.4,1    c0,0.5,0.2,0.9,0.5,1.2c0.3,0.3,0.8,0.7,1.5,1.1c0.7,0.5,1.4,0.9,1.9,1.3c0.6,0.4,1.1,0.8,1.5,1.2c0.4,0.4,0.8,0.9,1,1.4    c0.2,0.5,0.4,1.1,0.4,1.9c0,1.4-0.4,2.4-1.3,3.2c-0.9,0.8-2.2,1.2-3.9,1.2c-1.8,0-3-0.4-3.9-1.2c-0.8-0.8-1.2-2.1-1.2-3.8    c0-0.1,0-0.2,0-0.3c0-0.1,0-0.2,0-0.3H196.7z"></path>
		<path d="M209,170.1v0.4c0,0.9,0.1,1.5,0.4,1.9c0.3,0.4,0.7,0.6,1.4,0.6c0.5,0,0.9-0.1,1.2-0.4c0.3-0.3,0.4-0.6,0.4-1.1    c0-0.3-0.1-0.5-0.2-0.7s-0.3-0.4-0.5-0.6c-0.2-0.2-0.5-0.4-0.8-0.6c-0.3-0.2-0.6-0.4-1-0.7c-0.7-0.4-1.2-0.9-1.7-1.2    c-0.5-0.4-0.9-0.8-1.3-1.2c-0.4-0.4-0.6-0.9-0.8-1.4c-0.2-0.5-0.3-1.1-0.3-1.7c0-1.4,0.4-2.5,1.3-3.2c0.9-0.7,2.1-1.1,3.8-1.1    c3.2,0,4.8,1.6,4.8,4.9v0.3h-3.2v-0.3c0-1.5-0.6-2.2-1.8-2.2c-0.5,0-0.8,0.1-1.1,0.4c-0.3,0.3-0.4,0.6-0.4,1    c0,0.5,0.2,0.9,0.5,1.2c0.3,0.3,0.8,0.7,1.5,1.1c0.7,0.5,1.4,0.9,1.9,1.3c0.6,0.4,1.1,0.8,1.5,1.2c0.4,0.4,0.8,0.9,1,1.4    c0.2,0.5,0.4,1.1,0.4,1.9c0,1.4-0.4,2.4-1.3,3.2c-0.9,0.8-2.2,1.2-3.9,1.2c-1.8,0-3-0.4-3.9-1.2c-0.8-0.8-1.2-2.1-1.2-3.8    c0-0.1,0-0.2,0-0.3c0-0.1,0-0.2,0-0.3H209z"></path>
		<path d="M218,167.5c0-1.5,0.1-2.7,0.2-3.8c0.2-1,0.4-1.9,0.9-2.6c0.4-0.7,1-1.2,1.7-1.5s1.6-0.5,2.7-0.5c1.1,0,2,0.2,2.7,0.5    c0.7,0.3,1.3,0.8,1.7,1.5c0.4,0.7,0.7,1.5,0.9,2.6c0.2,1.1,0.2,2.3,0.2,3.8c0,1.5-0.1,2.7-0.2,3.8c-0.2,1-0.4,1.9-0.9,2.6    c-0.4,0.7-1,1.2-1.7,1.5c-0.7,0.3-1.6,0.5-2.7,0.5c-1.1,0-2-0.2-2.7-0.5c-0.7-0.3-1.3-0.8-1.7-1.5c-0.4-0.7-0.7-1.5-0.9-2.6    C218.1,170.2,218,169,218,167.5 M221.8,167.7c0,1,0,1.8,0,2.5c0,0.7,0.1,1.2,0.2,1.7c0.1,0.4,0.3,0.7,0.5,0.9s0.6,0.3,1,0.3    c0.4,0,0.8-0.1,1-0.3s0.4-0.5,0.5-0.8c0.1-0.4,0.2-0.9,0.2-1.5c0-0.6,0-1.3,0-2.2v-1.5c0-0.8,0-1.5,0-2.1c0-0.6-0.1-1.1-0.2-1.5    c-0.1-0.4-0.3-0.7-0.5-0.9c-0.2-0.2-0.6-0.3-1-0.3c-0.4,0-0.8,0.1-1,0.3c-0.2,0.2-0.4,0.4-0.5,0.8c-0.1,0.4-0.2,0.8-0.2,1.3    c0,0.5,0,1.2,0,1.9v1.1L221.8,167.7L221.8,167.7z"></path>
		<path d="M241.8,169.2c0,0.2,0,0.3,0,0.4v0.4c0,2-0.4,3.4-1.2,4.3c-0.8,0.9-2.1,1.4-3.9,1.4c-1.1,0-2-0.2-2.7-0.5s-1.2-0.8-1.6-1.5    c-0.4-0.7-0.7-1.5-0.8-2.6c-0.2-1.1-0.2-2.3-0.2-3.8s0.1-2.7,0.2-3.8c0.2-1,0.4-1.9,0.8-2.6s0.9-1.2,1.6-1.5    c0.7-0.3,1.6-0.5,2.7-0.5c1.8,0,3,0.4,3.9,1.3c0.8,0.8,1.2,2.2,1.2,4v0.6h-3.5v-0.4c0-0.9-0.1-1.6-0.4-2c-0.2-0.4-0.6-0.6-1.2-0.6    c-0.6,0-1,0.2-1.2,0.6c-0.2,0.4-0.4,1.1-0.4,2v5.5c0,1,0.1,1.8,0.3,2.2c0.2,0.4,0.6,0.7,1.2,0.7c0.7,0,1.1-0.3,1.3-0.8    c0.2-0.5,0.3-1.4,0.3-2.7v-0.3L241.8,169.2L241.8,169.2z"></path>
		<path d="M244.5,154.4h3.6v3.3h-3.6V154.4z M244.5,159.6h3.6v15.8h-3.6V159.6z"></path>
		<path d="M258.7,175.4c-0.2-0.2-0.3-0.7-0.4-1.5c-0.8,1.3-2,2-3.6,2c-1.2,0-2.1-0.4-2.8-1.2c-0.7-0.8-1-1.9-1-3.4    c0-0.7,0.1-1.4,0.3-1.9c0.2-0.5,0.4-1,0.8-1.4c0.4-0.4,0.8-0.8,1.4-1.1c0.5-0.3,1.2-0.7,1.9-1c0.5-0.2,0.9-0.4,1.2-0.5    c0.4-0.2,0.7-0.3,0.9-0.5c0.2-0.2,0.4-0.4,0.5-0.6c0.1-0.2,0.2-0.5,0.2-0.9c0-1-0.5-1.6-1.6-1.6c-0.7,0-1.2,0.2-1.5,0.5    c-0.3,0.4-0.5,0.9-0.5,1.7v0.3h-3.5c0-1.8,0.4-3.1,1.3-3.9c0.9-0.8,2.3-1.2,4.2-1.2c1,0,1.8,0.1,2.4,0.3c0.7,0.2,1.2,0.5,1.6,0.9    c0.4,0.4,0.7,0.9,0.9,1.5s0.3,1.4,0.3,2.3v8.9c0,0.4,0,0.8,0.1,1.2c0.1,0.4,0.2,0.7,0.4,1.1L258.7,175.4L258.7,175.4z     M258.2,167.1c-1.2,0.6-2.1,1.2-2.7,1.7c-0.6,0.5-0.9,1.2-0.9,2.1c0,1.4,0.5,2,1.6,2c1.3,0,1.9-1.1,1.9-3.3V167.1z"></path>
		<path d="M268.6,170.6c0,0.7,0.1,1.2,0.2,1.5c0.1,0.3,0.4,0.4,0.9,0.4h0.2c0.1,0,0.1,0,0.2,0v2.8c-0.4,0-0.8,0.1-1.1,0.1    c-0.3,0-0.6,0-0.8,0c-0.7,0-1.2-0.1-1.7-0.2s-0.7-0.4-1-0.7c-0.2-0.3-0.4-0.7-0.5-1.2c-0.1-0.5-0.1-1-0.1-1.7v-9.5h-1.4v-2.7h1.4    v-4.3h3.7v4.3h1.5v2.7h-1.5v7.2L268.6,170.6L268.6,170.6z"></path>
		<path d="M272.3,154.4h3.6v3.3h-3.6V154.4z M272.3,159.6h3.6v15.8h-3.6V159.6z"></path>
		<path d="M278.6,167.5c0-1.5,0.1-2.7,0.2-3.8c0.2-1,0.4-1.9,0.9-2.6c0.4-0.7,1-1.2,1.7-1.5s1.6-0.5,2.7-0.5s2,0.2,2.7,0.5    c0.7,0.3,1.3,0.8,1.7,1.5c0.4,0.7,0.7,1.5,0.9,2.6c0.2,1.1,0.2,2.3,0.2,3.8c0,1.5-0.1,2.7-0.2,3.8c-0.2,1-0.4,1.9-0.9,2.6    c-0.4,0.7-1,1.2-1.7,1.5c-0.7,0.3-1.6,0.5-2.7,0.5c-1.1,0-2-0.2-2.7-0.5s-1.3-0.8-1.7-1.5c-0.4-0.7-0.7-1.5-0.9-2.6    C278.7,170.2,278.6,169,278.6,167.5 M282.4,167.7c0,1,0,1.8,0,2.5c0,0.7,0.1,1.2,0.2,1.7c0.1,0.4,0.3,0.7,0.5,0.9    c0.2,0.2,0.6,0.3,1,0.3s0.8-0.1,1-0.3c0.3-0.2,0.4-0.5,0.5-0.8c0.1-0.4,0.2-0.9,0.2-1.5c0-0.6,0-1.3,0-2.2v-1.5c0-0.8,0-1.5,0-2.1    c0-0.6-0.1-1.1-0.2-1.5c-0.1-0.4-0.3-0.7-0.5-0.9c-0.2-0.2-0.6-0.3-1-0.3s-0.8,0.1-1,0.3s-0.4,0.4-0.5,0.8    c-0.1,0.4-0.2,0.8-0.2,1.3c0,0.5,0,1.2,0,1.9v1.1L282.4,167.7L282.4,167.7z"></path>
		<path d="M292.4,159.6h3.6v1.6c0.8-1.3,1.9-2,3.3-2c1.1,0,2,0.3,2.6,1c0.6,0.6,0.9,1.6,0.9,2.8v12.4h-3.5v-10.6    c0-0.9-0.1-1.5-0.3-1.9c-0.2-0.4-0.6-0.6-1.2-0.6c-0.7,0-1.1,0.3-1.3,0.8s-0.4,1.3-0.4,2.3v10h-3.7L292.4,159.6L292.4,159.6z"></path>
	</g>
	<g>
		<path class="st0" d="M270.4,0h-70.2c4.2,1.8,7.9,4.2,10.9,7.3c7,7.1,10.5,17.5,10.5,31.2V41c0,0.8-0.1,1.7-0.2,2.6h-25.2v-3.8    c0-7.6-1.2-13.1-3.7-16.5c-2.5-3.4-6.7-5.1-12.6-5.1c-4.3,0-7.6,1.3-10,3.8c-2.4,2.5-3.6,6-3.6,10.4c0,4.5,1.5,8.2,4.5,10.9    c3,2.7,7,5.8,12.2,9.2l14.6,9.9c4.7,3.2,8.7,6.2,12,9.1c3.3,2.9,6.1,6,8.3,9.3c2.2,3.3,3.8,6.9,4.8,10.9c1,4,1.5,8.6,1.5,13.7    c0,13-3.7,23-11,30c-3.2,3-6.9,5.4-11.3,7.1h27.8l6.8-35.8h30.5l7,35.8h28.6L270.4,0z M240.9,85.3l11.2-59.7l11.4,59.7L240.9,85.3    L240.9,85.3z"></path>
		<path class="st1" d="M139.1,101c0-1.4,0-2.8,0.1-4.2c0.1-1.4,0.2-2.8,0.3-4.4H166v9.1c0,7.7,0.9,13.4,2.7,17.1    c1.8,3.7,5.8,5.6,11.8,5.6c11.5,0,17.2-5.6,17.2-16.9c0-2.5-0.4-4.8-1-6.7c-0.7-2-1.7-3.8-3-5.5c-1.3-1.7-3-3.4-5-5.1    c-2-1.7-4.4-3.5-7.2-5.4L167.9,75c-4.5-3.2-8.5-6.1-11.9-8.8c-3.4-2.7-6.2-5.6-8.4-8.5c-2.2-3-3.9-6.2-5-9.9    c-1.1-3.6-1.7-7.9-1.7-13c0-12,3.5-21.4,10.6-28.1c3-2.8,6.4-5.1,10.4-6.7H95.1L63,142.5h27.1l6.8-35.8h30.5l7,35.8h26.5    c-4.5-1.8-8.4-4.3-11.4-7.6C142.5,127.6,139.1,116.3,139.1,101 M101.1,85.3l11.2-59.7l11.4,59.7L101.1,85.3L101.1,85.3z"></path>
	</g>
	<g>
		<path class="st1" d="M62.7,76.7c0,0.1,0,0.1,0,0.2c0,0,0,0,0,0c-0.2,0.3-0.8,0.7-1.6,1.1c-9.2,5.8-53.8,31.2-55,30    c0,0,1.5-10.8,2.6-11.5C9.5,96,27.2,87,39.3,80.8l1.1-0.6c0.4-0.2,0.9-0.5,1.3-0.7c-0.5-0.1-0.9-0.2-1.4-0.3L39.1,79    c-13.3-2.9-32.7-7.1-33.6-7.3C4.2,71.2,0,61.2,0,61.2C0.9,59.5,62.2,75.9,62.7,76.7"></path>
		<path class="st2" d="M71.9,7.9c-0.3,0.9-3.8,20.4-6.2,33.8L65.4,43c-0.1,0.5-0.2,1-0.3,1.4c-0.2-0.4-0.5-0.8-0.7-1.2l-0.6-1.1    c-6.6-11.9-16.2-29.3-16.7-30c-0.8-1.2-11.6-2.3-11.6-2.3c-1.3,1.3,32.1,55.3,33,55.6c0.1,0,0.1,0,0.2-0.1c0,0,0,0,0,0    c0,0,0.1-0.1,0.1-0.2c0.2-0.3,0.3-0.9,0.5-1.6c0,0,6.9-25.7,5.2-55C73.8-2.6,71.9,7.9,71.9,7.9"></path>
		<path class="st1" d="M64.6,68.5C64.6,68.5,64.6,68.6,64.6,68.5c0,0.2,0,0.2,0,0.3C63.7,69.3,1.3,57.6,1.2,55.7    c0,0,8.1-7.2,9.5-7.1c0.9,0.1,20.2,4.7,33.5,7.9l1.2,0.3c0.5,0.1,0.9,0.2,1.4,0.3c-0.3-0.4-0.6-0.8-0.9-1.2l-0.8-1    c-8.3-10.9-20.3-26.6-20.8-27.4C23.6,26.4,27,16,27,16c1.5-0.6,30.8,41.6,36.6,50.8C64.1,67.6,64.5,68.2,64.6,68.5"></path>
		<path class="st2" d="M43.2,134.8c0.2-0.9,5.3-20,8.9-33.2l0.3-1.2c0.1-0.5,0.3-1,0.4-1.4c-0.4,0.3-0.8,0.5-1.2,0.8l-1,0.7    c-11.1,7.9-27.2,19.5-28,19.9c-1.2,0.7-11.5-2.9-11.5-2.9c-0.6-1.7,52.7-36.2,53.7-36c0.1,0,0.1,0.1,0.1,0.1c0,0,0,0,0,0    c0,0,0,0.1,0,0.2c0,0.3-0.1,0.9-0.2,1.7c0,0-4.9,26.2-19,51.9C40.4,145.1,43.2,134.8,43.2,134.8"></path>
	</g>
</g>
</svg>
